<svg aria-hidden="true" style="position: absolute; width: 0; height: 0; overflow: hidden;" version="1.1" xmlns="http://www.w3.org/2000/svg" xmlns:xlink="http://www.w3.org/1999/xlink">
<defs>
<symbol id="icon-envelope" viewBox="0 0 43 32">
<path style="fill: var(--color4, #757575)" d="M38.667 0h-34.667c-2.206 0-4 1.675-4 3.734v22.404c0 2.059 1.794 3.734 4 3.734h34.667c2.206 0 4-1.675 4-3.734v-22.404c0-2.059-1.794-3.734-4-3.734zM38.667 2.489c0.181 0 0.353 0.035 0.511 0.096l-17.844 14.437-17.844-14.437c0.158-0.061 0.33-0.096 0.511-0.096h34.667zM38.667 27.383h-34.667c-0.736 0-1.333-0.558-1.333-1.245v-20.922l17.793 14.395c0.251 0.203 0.563 0.304 0.874 0.304s0.622-0.101 0.874-0.304l17.793-14.395v20.922c0 0.687-0.598 1.245-1.333 1.245z"></path>
</symbol>
<symbol id="icon-facebook" viewBox="0 0 32 32">
<path  d="M21.329 5.313h2.921v-5.088c-0.504-0.069-2.237-0.225-4.256-0.225-4.212 0-7.097 2.649-7.097 7.519v4.481h-4.648v5.688h4.648v14.312h5.699v-14.311h4.46l0.708-5.688h-5.169v-3.919c0.001-1.644 0.444-2.769 2.735-2.769z"></path>
</symbol>
<symbol id="icon-instagram" viewBox="0 0 32 32">
<path d="M31.969 9.408c-0.075-1.7-0.35-2.869-0.744-3.882-0.406-1.075-1.032-2.038-1.851-2.838-0.8-0.813-1.769-1.444-2.832-1.844-1.019-0.394-2.182-0.669-3.882-0.744-1.713-0.081-2.257-0.1-6.601-0.1s-4.888 0.019-6.595 0.094c-1.7 0.075-2.869 0.35-3.882 0.744-1.075 0.406-2.038 1.031-2.838 1.85-0.813 0.8-1.444 1.769-1.844 2.832-0.394 1.019-0.669 2.182-0.744 3.882-0.081 1.713-0.1 2.257-0.1 6.601s0.019 4.888 0.094 6.595c0.075 1.7 0.35 2.869 0.744 3.882 0.406 1.075 1.038 2.038 1.85 2.838 0.8 0.813 1.769 1.444 2.832 1.844 1.019 0.394 2.182 0.669 3.882 0.744 1.706 0.075 2.25 0.094 6.595 0.094s4.888-0.019 6.595-0.094c1.7-0.075 2.869-0.35 3.882-0.744 2.151-0.832 3.851-2.532 4.682-4.682 0.394-1.019 0.669-2.182 0.744-3.882 0.075-1.707 0.094-2.251 0.094-6.595s-0.006-4.888-0.081-6.595zM29.087 22.473c-0.069 1.563-0.331 2.407-0.55 2.969-0.538 1.394-1.644 2.5-3.038 3.038-0.563 0.219-1.413 0.481-2.969 0.55-1.688 0.075-2.194 0.094-6.464 0.094s-4.782-0.019-6.464-0.094c-1.563-0.069-2.407-0.331-2.969-0.55-0.694-0.256-1.325-0.663-1.838-1.194-0.531-0.519-0.938-1.144-1.194-1.838-0.219-0.563-0.481-1.413-0.55-2.969-0.075-1.688-0.094-2.194-0.094-6.464s0.019-4.782 0.094-6.464c0.069-1.563 0.331-2.407 0.55-2.969 0.256-0.694 0.663-1.325 1.2-1.838 0.519-0.531 1.144-0.938 1.838-1.194 0.563-0.219 1.413-0.481 2.969-0.55 1.688-0.075 2.194-0.094 6.464-0.094 4.276 0 4.782 0.019 6.464 0.094 1.563 0.069 2.407 0.331 2.969 0.55 0.694 0.256 1.325 0.662 1.838 1.194 0.531 0.519 0.938 1.144 1.194 1.838 0.219 0.563 0.481 1.413 0.55 2.969 0.075 1.688 0.094 2.194 0.094 6.464s-0.019 4.77-0.094 6.458z"></path>
<path  d="M16.059 7.783c-4.538 0-8.22 3.682-8.22 8.22s3.682 8.22 8.22 8.22c4.539 0 8.22-3.682 8.22-8.22s-3.682-8.22-8.22-8.22zM16.059 21.335c-2.944 0-5.332-2.388-5.332-5.332s2.388-5.332 5.332-5.332c2.944 0 5.332 2.388 5.332 5.332s-2.388 5.332-5.332 5.332z"></path>
<path  d="M26.524 7.458c0 1.060-0.859 1.919-1.919 1.919s-1.919-0.859-1.919-1.919c0-1.060 0.859-1.919 1.919-1.919s1.919 0.859 1.919 1.919z"></path>
</symbol>
<symbol id="icon-linkedin" viewBox="0 0 32 32">
<path  d="M31.992 32v-0.001h0.008v-11.736c0-5.741-1.236-10.164-7.948-10.164-3.227 0-5.392 1.771-6.276 3.449h-0.093v-2.913h-6.364v21.364h6.627v-10.579c0-2.785 0.528-5.479 3.977-5.479 3.399 0 3.449 3.179 3.449 5.657v10.401h6.62z"></path>
<path  d="M0.528 10.636h6.635v21.364h-6.635v-21.364z"></path>
<path  d="M3.843 0c-2.121 0-3.843 1.721-3.843 3.843s1.721 3.879 3.843 3.879c2.121 0 3.843-1.757 3.843-3.879-0.001-2.121-1.723-3.843-3.843-3.843v0z"></path>
</symbol>
<symbol id="icon-logo" viewBox="0 0 236 32">
<path style="fill: var(--color1, #2196f3)" d="M12.894 1.698h5.133l3.234 9.499 3.234-9.499h5.174l-4.891 13.056 3.638 9.176 8.125-22.312h6.063l-11.682 28.699h-4.689l-4.972-12.045-4.972 12.045h-4.689l-11.601-28.699h5.982l8.165 22.312 3.557-9.176-4.81-13.056zM53.448 30.72c-1.698 0-3.234-0.283-4.608-0.849-1.374-0.593-2.547-1.388-3.517-2.385s-1.725-2.156-2.264-3.476c-0.512-1.32-0.768-2.708-0.768-4.163 0-1.509 0.256-2.924 0.768-4.244 0.512-1.347 1.253-2.52 2.223-3.517 0.97-1.024 2.142-1.832 3.517-2.425 1.401-0.593 2.964-0.889 4.689-0.889s3.261 0.296 4.608 0.889c1.374 0.593 2.533 1.388 3.476 2.385 0.97 0.997 1.698 2.156 2.183 3.476 0.512 1.32 0.768 2.695 0.768 4.123 0 0.35-0.013 0.687-0.040 1.011 0 0.323-0.027 0.593-0.081 0.808h-16.371c0.081 0.835 0.283 1.576 0.606 2.223s0.741 1.199 1.253 1.657c0.512 0.458 1.091 0.808 1.738 1.051s1.32 0.364 2.021 0.364c1.078 0 2.088-0.256 3.032-0.768 0.97-0.539 1.63-1.24 1.981-2.102l4.649 1.293c-0.781 1.617-2.035 2.951-3.759 4.002-1.698 1.024-3.732 1.536-6.104 1.536zM58.945 17.947c-0.135-1.59-0.727-2.856-1.779-3.8-1.024-0.97-2.277-1.455-3.759-1.455-0.728 0-1.415 0.135-2.061 0.404-0.62 0.243-1.172 0.593-1.657 1.051s-0.889 1.011-1.213 1.657c-0.296 0.647-0.472 1.361-0.525 2.142h10.995zM81.081 30.72c-1.617 0-3.059-0.364-4.325-1.091s-2.264-1.725-2.991-2.991v3.678h-4.729v-29.507h5.416v12.045c0.755-1.293 1.738-2.291 2.951-2.991 1.24-0.728 2.681-1.091 4.325-1.091 1.374 0 2.627 0.296 3.759 0.889s2.102 1.388 2.91 2.385c0.835 0.997 1.469 2.169 1.9 3.517 0.458 1.347 0.687 2.762 0.687 4.244 0 1.536-0.256 2.964-0.768 4.285-0.485 1.32-1.172 2.479-2.061 3.476-0.889 0.97-1.94 1.738-3.153 2.304s-2.52 0.849-3.921 0.849zM79.586 26.112c0.862 0 1.657-0.162 2.385-0.485 0.728-0.35 1.347-0.808 1.859-1.374s0.903-1.226 1.172-1.981c0.296-0.755 0.445-1.563 0.445-2.425s-0.135-1.684-0.404-2.466c-0.269-0.781-0.66-1.469-1.172-2.061-0.485-0.593-1.064-1.064-1.738-1.415s-1.415-0.525-2.223-0.525c-1.213 0-2.304 0.404-3.274 1.213-0.943 0.781-1.671 1.752-2.183 2.91v5.053c0.189 0.539 0.458 1.024 0.808 1.455 0.377 0.431 0.795 0.808 1.253 1.132 0.458 0.296 0.957 0.539 1.496 0.728 0.539 0.162 1.064 0.243 1.576 0.243z"></path>
<path style="fill: var(--color3, #212121)" d="M124.413 9.135c-0.189-0.189-0.539-0.445-1.051-0.768-0.485-0.323-1.091-0.633-1.819-0.93-0.701-0.323-1.469-0.593-2.304-0.808s-1.684-0.323-2.547-0.323c-1.536 0-2.681 0.283-3.436 0.849s-1.132 1.361-1.132 2.385c0 0.593 0.135 1.091 0.404 1.496 0.296 0.377 0.714 0.714 1.253 1.011s1.213 0.566 2.021 0.808c0.835 0.243 1.792 0.499 2.87 0.768 1.401 0.377 2.668 0.781 3.8 1.213 1.159 0.431 2.129 0.97 2.91 1.617 0.808 0.647 1.428 1.428 1.859 2.344 0.431 0.889 0.647 1.994 0.647 3.315 0 1.536-0.296 2.856-0.889 3.961-0.566 1.078-1.347 1.954-2.344 2.627-0.97 0.674-2.102 1.172-3.395 1.496-1.267 0.296-2.6 0.445-4.002 0.445-2.156 0-4.285-0.323-6.387-0.97s-3.988-1.563-5.659-2.749l2.466-4.81c0.243 0.243 0.674 0.566 1.293 0.97 0.647 0.377 1.401 0.768 2.264 1.172 0.862 0.377 1.819 0.701 2.87 0.97s2.129 0.404 3.234 0.404c3.072 0 4.608-0.984 4.608-2.951 0-0.62-0.175-1.145-0.525-1.576s-0.849-0.808-1.496-1.132c-0.647-0.323-1.428-0.62-2.344-0.889s-1.94-0.566-3.072-0.889c-1.374-0.377-2.573-0.781-3.597-1.213-0.997-0.458-1.832-0.984-2.506-1.576-0.674-0.62-1.186-1.32-1.536-2.102-0.323-0.808-0.485-1.765-0.485-2.87 0-1.455 0.269-2.749 0.808-3.88s1.28-2.075 2.223-2.829c0.97-0.755 2.088-1.32 3.355-1.698 1.267-0.404 2.627-0.606 4.083-0.606 2.021 0 3.88 0.323 5.578 0.97 1.698 0.62 3.18 1.361 4.446 2.223l-2.466 4.527zM145.247 29.224c-0.728 0.323-1.617 0.647-2.668 0.97s-2.156 0.485-3.315 0.485c-0.755 0-1.469-0.094-2.142-0.283-0.647-0.189-1.226-0.485-1.738-0.889-0.485-0.431-0.876-0.97-1.172-1.617-0.296-0.674-0.445-1.482-0.445-2.425v-12.167h-2.789v-4.163h2.789v-6.872h5.416v6.872h4.446v4.163h-4.446v10.348c0 0.755 0.189 1.293 0.566 1.617 0.404 0.296 0.889 0.445 1.455 0.445s1.118-0.094 1.657-0.283c0.539-0.189 0.97-0.35 1.293-0.485l1.091 4.285zM155.748 30.72c-2.183 0-3.84-0.701-4.972-2.102s-1.698-3.476-1.698-6.225v-13.258h5.416v12.086c0 3.261 1.172 4.891 3.517 4.891 1.051 0 2.061-0.31 3.032-0.93 0.997-0.647 1.805-1.617 2.425-2.91v-13.137h5.417v14.956c0 0.566 0.094 0.97 0.283 1.213 0.216 0.243 0.552 0.377 1.011 0.404v4.608c-0.539 0.108-0.997 0.175-1.374 0.202-0.35 0.027-0.674 0.040-0.971 0.040-0.97 0-1.765-0.216-2.385-0.647-0.593-0.458-0.943-1.078-1.051-1.859l-0.121-1.698c-0.943 1.455-2.156 2.547-3.638 3.274s-3.112 1.091-4.891 1.091zM184.253 30.72c-1.455 0-2.803-0.283-4.042-0.849s-2.304-1.347-3.193-2.344c-0.889-0.997-1.59-2.156-2.102-3.476-0.485-1.347-0.728-2.789-0.728-4.325s0.229-2.964 0.687-4.285c0.485-1.32 1.145-2.479 1.981-3.476s1.832-1.779 2.991-2.344c1.159-0.566 2.425-0.849 3.8-0.849 1.563 0 2.964 0.377 4.204 1.132 1.267 0.755 2.25 1.738 2.951 2.951v-12.045h5.416v23.283c0 0.566 0.094 0.97 0.283 1.213s0.512 0.377 0.97 0.404v4.608c-0.943 0.189-1.711 0.283-2.304 0.283-0.97 0-1.765-0.243-2.385-0.728s-0.97-1.118-1.051-1.9l-0.121-1.334c-0.781 1.347-1.846 2.371-3.193 3.072-1.32 0.674-2.708 1.011-4.163 1.011zM185.667 26.112c0.512 0 1.037-0.081 1.576-0.243 0.539-0.189 1.037-0.445 1.496-0.768s0.862-0.701 1.213-1.132c0.377-0.431 0.66-0.903 0.849-1.415v-5.053c-0.216-0.593-0.525-1.132-0.93-1.617-0.377-0.512-0.822-0.943-1.334-1.293-0.485-0.377-1.011-0.674-1.576-0.889-0.539-0.216-1.078-0.323-1.617-0.323-0.808 0-1.563 0.175-2.264 0.525-0.674 0.35-1.253 0.835-1.738 1.455-0.485 0.593-0.862 1.28-1.132 2.061s-0.404 1.59-0.404 2.425c0 0.889 0.148 1.711 0.445 2.466s0.701 1.415 1.213 1.981c0.512 0.566 1.118 1.011 1.819 1.334 0.728 0.323 1.523 0.485 2.385 0.485zM202.745 30.316v-21.181h5.416v21.181h-5.416zM202.745 6.184v-5.376h5.416v5.376h-5.416zM224.042 30.72c-1.725 0-3.274-0.296-4.648-0.889s-2.547-1.388-3.517-2.385c-0.943-1.024-1.671-2.196-2.183-3.517s-0.768-2.708-0.768-4.163c0-1.482 0.256-2.883 0.768-4.204s1.24-2.479 2.183-3.476c0.97-1.024 2.142-1.832 3.517-2.425s2.924-0.889 4.648-0.889c1.725 0 3.261 0.296 4.608 0.889 1.374 0.593 2.533 1.401 3.476 2.425 0.97 0.997 1.711 2.156 2.223 3.476s0.768 2.722 0.768 4.204c0 1.455-0.256 2.843-0.768 4.163s-1.24 2.493-2.183 3.517c-0.943 0.997-2.102 1.792-3.476 2.385s-2.924 0.889-4.648 0.889zM218.504 19.766c0 0.943 0.135 1.805 0.404 2.587 0.296 0.755 0.687 1.415 1.172 1.981 0.512 0.566 1.105 1.011 1.779 1.334 0.674 0.296 1.401 0.445 2.183 0.445s1.509-0.148 2.183-0.445c0.674-0.323 1.253-0.768 1.738-1.334 0.512-0.566 0.903-1.24 1.172-2.021 0.296-0.781 0.445-1.644 0.445-2.587 0-0.916-0.148-1.765-0.445-2.547-0.269-0.781-0.66-1.455-1.172-2.021-0.485-0.566-1.064-0.997-1.738-1.293-0.674-0.323-1.401-0.485-2.183-0.485s-1.509 0.162-2.183 0.485c-0.674 0.323-1.267 0.768-1.779 1.334-0.485 0.566-0.876 1.24-1.172 2.021-0.269 0.781-0.404 1.63-0.404 2.547z"></path>
</symbol>
<symbol id="icon-smartphone" viewBox="0 0 21 32">
<path style="fill: var(--color4, #757575)" d="M18.133 0h-14.933c-1.765 0-3.2 1.34-3.2 2.987v25.889c0 1.647 1.435 2.987 3.2 2.987h14.933c1.765 0 3.2-1.34 3.2-2.987v-25.889c0-1.647-1.435-2.987-3.2-2.987zM3.2 1.991h14.933c0.589 0 1.067 0.446 1.067 0.996v20.91h-17.067v-20.91c0-0.549 0.478-0.996 1.067-0.996zM18.133 29.872h-14.933c-0.589 0-1.067-0.446-1.067-0.996v-2.987h17.067v2.987c0 0.55-0.478 0.996-1.067 0.996z"></path>
<path style="fill: var(--color4, #757575)" d="M5.021 27.177c0.417 0.389 0.417 1.020 0 1.409s-1.092 0.389-1.508 0c-0.417-0.389-0.417-1.020 0-1.409s1.092-0.389 1.508 0z"></path>
</symbol>
<symbol id="icon-twitter" viewBox="0 0 32 32">
<path   d="M32 6.078c-1.19 0.522-2.458 0.868-3.78 1.036 1.36-0.812 2.398-2.088 2.886-3.626-1.268 0.756-2.668 1.29-4.16 1.588-1.204-1.282-2.92-2.076-4.792-2.076-3.632 0-6.556 2.948-6.556 6.562 0 0.52 0.044 1.020 0.152 1.496-5.454-0.266-10.28-2.88-13.522-6.862-0.566 0.982-0.898 2.106-0.898 3.316 0 2.272 1.17 4.286 2.914 5.452-1.054-0.020-2.088-0.326-2.964-0.808 0 0.020 0 0.046 0 0.072 0 3.188 2.274 5.836 5.256 6.446-0.534 0.146-1.116 0.216-1.72 0.216-0.42 0-0.844-0.024-1.242-0.112 0.85 2.598 3.262 4.508 6.13 4.57-2.232 1.746-5.066 2.798-8.134 2.798-0.538 0-1.054-0.024-1.57-0.090 2.906 1.874 6.35 2.944 10.064 2.944 12.072 0 18.672-10 18.672-18.668 0-0.29-0.010-0.57-0.024-0.848 1.302-0.924 2.396-2.078 3.288-3.406z"></path>
</symbol>
</defs>
</svg>
